<svg xmlns="http://www.w3.org/2000/svg" width="479" height="454" viewBox="0 0 479 454" version="1.1">
	<path d="M 0 226.990 L 0 453.980 239.750 453.740 L 479.500 453.500 479.752 226.750 L 480.004 0 240.002 0 L 0 0 0 226.990 M 0.491 227.500 C 0.491 352.350, 0.608 403.574, 0.750 341.330 C 0.892 279.087, 0.892 176.937, 0.750 114.330 C 0.608 51.724, 0.491 102.650, 0.491 227.500 M 239.527 177.402 C 231.058 186.383, 230.751 210.873, 238.732 241 C 240.617 248.116, 241.372 253.951, 241.738 264.250 L 242.227 278 269.552 278 L 296.877 278 297.575 273.350 C 298.600 266.511, 297.301 253.066, 294.557 242.118 C 293.231 236.828, 291.617 229.752, 290.971 226.392 L 289.796 220.285 293.227 215.790 C 297.768 209.841, 299.377 203.751, 298.789 194.746 C 298.248 186.459, 295.735 180.638, 290.967 176.626 L 287.847 174 265.291 174 L 242.736 174 239.527 177.402 M 104.270 177.483 C 102.493 178.255, 100.132 180.375, 99.023 182.193 C 94.378 189.813, 98.142 196.614, 108.579 199.458 C 120.629 202.741, 123.471 204.257, 123.799 207.578 C 124.194 211.584, 121.338 214.095, 115.659 214.735 C 109.140 215.470, 104.210 213.509, 102.252 209.402 C 101.097 206.980, 99.963 206, 98.315 206 C 93.425 206, 97.035 215.355, 103.206 218.675 C 107.813 221.153, 119.572 221.165, 123.342 218.696 C 126.900 216.364, 129.992 211.256, 129.996 207.700 C 130.005 200.851, 125.466 197.077, 114.188 194.558 C 104.103 192.306, 100.958 189.175, 104.253 184.668 C 105.783 182.576, 111.613 181.517, 116.525 182.439 C 119.105 182.923, 120.648 183.974, 121.831 186.054 C 123.064 188.221, 124.246 188.989, 126.358 188.994 C 128.976 188.999, 129.159 188.769, 128.534 186.250 C 127.647 182.674, 124.315 179.090, 120.282 177.371 C 116.174 175.620, 108.429 175.674, 104.270 177.483 M 172.002 193.184 C 172.003 211.168, 172.808 214.383, 178.323 218.429 C 180.600 220.099, 182.634 220.500, 188.823 220.500 C 195.324 220.500, 197.015 220.133, 199.863 218.101 C 205.229 214.274, 206 211.116, 206 192.966 L 206 176.867 203.250 177.184 L 200.500 177.500 200.299 192.424 C 200.189 200.640, 199.597 208.560, 198.982 210.044 C 196.742 215.450, 186.374 216.943, 181.306 212.590 L 178.500 210.179 178 193.840 L 177.500 177.500 174.750 177.184 L 172 176.867 172.002 193.184 M 325.447 178.277 C 325.178 178.979, 325.079 188.767, 325.229 200.027 L 325.500 220.500 341.750 220.775 L 358 221.050 358 218.025 L 358 215 344.500 215 L 331 215 331 208.031 L 331 201.062 343.250 200.781 L 355.500 200.500 355.500 198 L 355.500 195.500 343.250 195.219 L 331 194.938 331 188.969 L 331 183 344 183 L 357 183 357 180 L 357 177 341.469 177 C 329.791 177, 325.816 177.317, 325.447 178.277 M 403 199.066 L 403 221.133 405.750 220.816 C 408.491 220.501, 408.501 220.471, 408.789 211.750 L 409.078 203 416.916 203 C 426.078 203, 426.032 202.964, 430.009 213.211 C 432.599 219.886, 433.097 220.526, 435.919 220.813 C 437.613 220.986, 439 220.750, 439 220.291 C 439 218.920, 432.959 203.656, 431.922 202.406 C 431.268 201.617, 431.748 200.740, 433.441 199.631 C 438.508 196.311, 439.270 185.475, 434.735 181.227 C 431.043 177.768, 427.444 177, 414.935 177 L 403 177 403 199.066 M 244.707 182.016 C 237.176 187.940, 238.494 211.580, 246.468 213.581 C 254.429 215.579, 258.900 196.564, 253.128 185.251 C 251.454 181.970, 249.363 180, 247.553 180 C 247.397 180, 246.117 180.907, 244.707 182.016 M 260.121 185.250 C 261.207 188.394, 261.930 193.308, 261.923 197.500 C 261.914 203.700, 261.227 206.886, 258.528 213.250 C 257.843 214.865, 258.779 214.999, 270.643 214.985 C 285.432 214.968, 287.613 214.255, 290.500 208.492 C 293.122 203.258, 293.263 190.983, 290.753 186.345 C 287.368 180.087, 287.112 180, 272.082 180 L 258.307 180 260.121 185.250 M 409 190 L 409 197 416.250 196.882 C 420.238 196.817, 424.834 196.478, 426.464 196.128 C 430.091 195.351, 432.563 191.380, 431.660 187.781 C 430.794 184.331, 426.670 183, 416.851 183 L 409 183 409 190 M 240.358 219.750 C 240.629 220.713, 241.155 223.075, 241.527 225 C 241.899 226.925, 243.492 233.900, 245.068 240.500 C 246.643 247.100, 248.239 256.887, 248.614 262.250 L 249.295 272 270.031 272 L 290.767 272 291.294 269.250 C 292.145 264.816, 290.358 251.444, 287.118 238 C 285.462 231.125, 283.970 224.375, 283.803 223 L 283.500 220.500 263.708 220.408 C 250.161 220.345, 243.550 219.950, 242.758 219.158 C 241.045 217.445, 239.796 217.753, 240.358 219.750 M 341.562 242.926 L 331 253.488 331 243.244 C 331 233.106, 330.975 233, 328.607 233 C 327.291 233, 325.951 233.686, 325.629 234.526 C 325.307 235.365, 325.045 244.969, 325.046 255.868 C 325.050 276.621, 325.706 280.094, 329.355 278.694 C 330.680 278.185, 331 276.597, 331 270.517 C 331 263.393, 331.182 262.772, 334.259 259.415 L 337.517 255.859 345.286 267.280 C 352.006 277.161, 353.410 278.688, 355.695 278.601 C 357.147 278.545, 358.496 278.017, 358.692 277.427 C 358.888 276.836, 355.208 270.828, 350.513 264.076 L 341.976 251.799 346.894 246.150 C 349.599 243.042, 353.204 239.178, 354.906 237.563 C 358.738 233.925, 358.757 233.338, 355.062 232.796 C 352.445 232.412, 350.969 233.520, 341.562 242.926 M 95.448 234.275 C 95.179 234.976, 95.081 245.213, 95.229 257.025 L 95.500 278.500 98 278.500 L 100.500 278.500 101 261.124 L 101.500 243.749 113 261.124 C 129.641 286.268, 130.710 285.911, 130.322 255.341 C 130.177 243.879, 130.044 234.162, 130.029 233.750 C 130.013 233.338, 128.875 233, 127.500 233 L 125 233 125 250 C 125 259.350, 124.662 266.999, 124.250 266.998 C 123.838 266.997, 122.162 264.860, 120.527 262.248 C 118.892 259.637, 113.963 251.988, 109.572 245.250 C 102.473 234.355, 101.277 233, 98.764 233 C 97.209 233, 95.717 233.574, 95.448 234.275 M 177.194 255.024 C 172.639 267.137, 169.183 277.487, 169.515 278.024 C 169.847 278.561, 170.980 279, 172.033 279 C 174.139 279, 176.079 275.850, 178.059 269.216 L 179.337 264.932 188.782 265.216 L 198.228 265.500 200.245 271 C 201.355 274.025, 202.709 277.063, 203.254 277.750 C 204.463 279.275, 207.641 279.390, 208.536 277.941 C 208.896 277.359, 205.239 267.009, 200.409 254.941 C 191.633 233.013, 191.625 233, 188.552 233 L 185.477 233 177.194 255.024 M 375.040 254.621 C 370.743 272.266, 370.025 276.402, 371.137 277.106 C 374.990 279.547, 375.489 278.488, 380.739 256.750 C 385.412 237.405, 385.726 235.388, 384.245 234.250 C 383.350 233.563, 382.097 233, 381.461 233 C 380.783 233, 378.124 241.955, 375.040 254.621 M 403.448 234.275 C 403.179 234.976, 403.081 245.213, 403.229 257.025 L 403.500 278.500 406 278.500 L 408.500 278.500 409 261.256 L 409.500 244.013 420.849 261.439 C 431.111 277.194, 432.453 278.845, 434.849 278.662 L 437.500 278.459 437.769 255.661 L 438.038 232.863 435.269 233.182 L 432.500 233.500 432 250.330 L 431.500 267.161 423.856 255.330 C 419.651 248.824, 414.701 241.147, 412.856 238.272 C 410.142 234.045, 408.968 233.040, 406.719 233.022 C 405.189 233.010, 403.717 233.574, 403.448 234.275 M 185.156 250.064 C 183.420 254.499, 182 258.449, 182 258.842 C 182 259.794, 194.402 259.626, 194.847 258.668 C 195.157 258, 189.107 242, 188.544 242 C 188.417 242, 186.893 245.629, 185.156 250.064 " stroke="none" fill="black" fill-rule="evenodd"/>
</svg>